<svg width="24.000000" height="24.000000" viewBox="0 0 24 24" fill="none" xmlns="http://www.w3.org/2000/svg" xmlns:xlink="http://www.w3.org/1999/xlink">
	<desc>
			Created with Pixso.
	</desc>
	<defs>
		<clipPath id="clip0_221">
			<rect id="carbon:view" width="24.000000" height="24.000000" fill="white" fill-opacity="0"/>
		</clipPath>
	</defs>
	<rect id="carbon:view" width="24.000000" height="24.000000" fill="#FFFFFF" fill-opacity="0"/>
	<g clip-path="url(#clip0_221)">
		<path id="Vector" d="M23.2 11.74C22.32 9.46 20.79 7.48 18.8 6.06C16.8 4.64 14.44 3.84 12 3.75C9.55 3.84 7.19 4.64 5.19 6.06C3.2 7.48 1.67 9.46 0.79 11.74C0.73 11.9 0.73 12.09 0.79 12.25C1.67 14.53 3.2 16.51 5.19 17.93C7.19 19.35 9.55 20.15 12 20.25C14.44 20.15 16.8 19.35 18.8 17.93C20.79 16.51 22.32 14.53 23.2 12.25C23.26 12.09 23.26 11.9 23.2 11.74ZM12 18.75C8.02 18.75 3.82 15.8 2.3 12C3.82 8.19 8.02 5.25 12 5.25C15.97 5.25 20.17 8.19 21.69 12C20.17 15.8 15.97 18.75 12 18.75Z" fill="#515151" fill-opacity="1.000000" fill-rule="nonzero"/>
		<path id="Vector" d="M12 7.5C11.11 7.5 10.24 7.76 9.49 8.25C8.75 8.75 8.18 9.45 7.84 10.27C7.5 11.1 7.41 12 7.58 12.87C7.76 13.75 8.18 14.55 8.81 15.18C9.44 15.81 10.24 16.23 11.12 16.41C11.99 16.58 12.89 16.49 13.72 16.15C14.54 15.81 15.24 15.24 15.74 14.5C16.23 13.76 16.5 12.89 16.5 12C16.5 10.8 16.02 9.66 15.18 8.81C14.33 7.97 13.19 7.5 12 7.5ZM12 15C11.4 15 10.82 14.82 10.33 14.49C9.83 14.16 9.45 13.69 9.22 13.14C9 12.59 8.94 11.99 9.05 11.41C9.17 10.83 9.45 10.29 9.87 9.87C10.29 9.45 10.83 9.17 11.41 9.05C11.99 8.94 12.59 9 13.14 9.22C13.69 9.45 14.16 9.83 14.49 10.33C14.82 10.82 15 11.4 15 12C15 12.79 14.68 13.55 14.12 14.12C13.55 14.68 12.79 15 12 15Z" fill="#515151" fill-opacity="1.000000" fill-rule="nonzero"/>
	</g>
</svg>
